<?xml version="1.0" standalone="no"?>
<!DOCTYPE svg PUBLIC "-//W3C//DTD SVG 20010904//EN"
 "http://www.w3.org/TR/2001/REC-SVG-20010904/DTD/svg10.dtd">
<svg version="1.0" xmlns="http://www.w3.org/2000/svg"
 width="512.000000pt" height="512.000000pt" viewBox="0 0 512.000000 512.000000"
 preserveAspectRatio="xMidYMid meet">
<metadata>
Created by potrace 1.11, written by Peter Selinger 2001-2013
</metadata>
<g transform="translate(0.000000,512.000000) scale(0.100000,-0.100000)"
fill="#000000" stroke="none">
<path d="M3993 5105 c-123 -53 -145 -219 -40 -299 46 -35 93 -42 300 -40 98 1
177 -2 177 -7 0 -5 -3 -9 -8 -9 -4 0 -18 -10 -32 -22 -14 -13 -125 -103 -247
-200 -125 -100 -229 -191 -238 -207 -48 -94 5 -223 104 -251 22 -6 222 -10
501 -10 430 0 468 2 505 19 69 32 104 92 101 172 -2 58 -36 110 -91 140 -37
22 -51 23 -247 23 -114 0 -205 2 -203 5 2 4 116 96 253 206 138 110 258 214
268 230 13 20 19 50 19 91 0 52 -4 66 -29 98 -58 76 -51 76 -586 75 -381 0
-481 -3 -507 -14z"/>
<path d="M2392 4569 c-48 -24 -92 -88 -96 -141 -6 -68 38 -143 100 -173 31
-15 68 -17 246 -18 114 0 205 -4 201 -7 -5 -4 -121 -98 -260 -208 -175 -140
-257 -212 -268 -235 -43 -92 -2 -203 92 -242 30 -13 111 -15 507 -15 438 0
474 2 512 19 59 27 94 77 101 145 5 47 2 61 -21 100 -18 30 -42 54 -69 68 -39
20 -55 22 -244 22 -112 0 -203 3 -203 7 0 4 10 14 23 22 12 9 34 26 48 39 15
13 117 95 228 183 229 182 248 207 238 298 -5 35 -16 62 -35 86 -57 71 -42 70
-577 70 -470 1 -481 1 -523 -20z"/>
<path d="M1854 3185 c1 -42 0 -78 -4 -80 -3 -2 -28 7 -56 20 -27 12 -74 28
-104 34 -70 14 -180 23 -180 15 0 -3 8 -18 18 -32 27 -40 52 -103 55 -136 2
-28 -1 -30 -58 -43 -33 -7 -90 -23 -126 -34 l-65 -21 -53 51 c-158 154 -398
172 -570 42 -177 -132 -229 -362 -129 -560 23 -45 108 -141 141 -158 17 -9 17
-12 2 -54 -70 -195 -108 -338 -129 -484 -15 -99 -60 -211 -115 -285 -14 -19
-63 -73 -108 -118 -87 -88 -131 -155 -162 -244 -33 -96 -43 -261 -21 -368 12
-64 74 -202 101 -226 11 -10 19 -20 19 -24 0 -8 -43 -18 -110 -26 -19 -3 -54
-14 -77 -26 -180 -90 -147 -366 50 -419 41 -11 1786 -7 1857 5 19 3 60 8 90
11 30 3 63 8 72 11 9 3 32 -3 50 -13 31 -17 104 -18 1386 -21 1316 -2 1353 -2
1390 17 86 44 102 87 102 272 0 179 -10 228 -58 271 -35 32 -37 37 -36 93 1
159 -82 417 -181 562 l-25 38 52 26 c150 76 237 211 244 376 14 338 -323 559
-631 414 -137 -64 -245 -224 -245 -364 0 -27 -4 -38 -12 -34 -108 40 -338 88
-492 102 -33 3 -61 7 -63 9 -2 1 -8 29 -14 62 -6 32 -26 110 -45 171 l-34 113
58 57 c102 102 153 219 155 358 1 100 -16 171 -61 258 -91 176 -288 290 -486
282 -160 -7 -310 -85 -401 -209 l-20 -27 -60 21 c-109 38 -201 62 -335 85 -82
14 -88 17 -144 69 -110 104 -297 212 -398 231 l-37 7 3 -77z"/>
</g>
</svg>
